<?xml version="1.0" encoding="utf-8"?>
<!-- Generator: Adobe Illustrator 16.0.0, SVG Export Plug-In . SVG Version: 6.00 Build 0)  -->
<!DOCTYPE svg PUBLIC "-//W3C//DTD SVG 1.1//EN" "http://www.w3.org/Graphics/SVG/1.1/DTD/svg11.dtd">
<svg version="1.1" id="Layer_1" xmlns="http://www.w3.org/2000/svg" xmlns:xlink="http://www.w3.org/1999/xlink" x="0px" y="0px"
	 width="230.964px" height="201.55px" viewBox="-0.5 -0.5 230.964 201.55" enable-background="new -0.5 -0.5 230.964 201.55"
	 xml:space="preserve">
<path fill="#999999" d="M201.573,179.523c0-3.045-0.793-5.525-2.382-7.443c-1.721-1.918-4.069-2.877-7.047-2.877
	c-2.845,0-5.127,0.959-6.847,2.877c-1.72,1.986-2.581,4.697-2.581,8.137c0,7.412,3.343,11.115,10.024,11.115
	c1.853,0,3.44-0.264,4.765-0.791c1.124-0.529,2.28-1.391,3.474-2.582l-3.276-3.176c-1.39,1.324-3.044,1.984-4.962,1.984
	c-1.455,0-2.613-0.43-3.474-1.289c-0.86-0.926-1.29-2.086-1.29-3.473h13.596V179.523z M187.977,178.232
	c0.065-0.861,0.264-1.621,0.595-2.283c0.66-1.521,1.854-2.281,3.572-2.281c1.788,0,3.012,0.76,3.673,2.281
	c0.266,0.662,0.43,1.422,0.495,2.283H187.977z"/>
<rect x="206.438" y="184.982" fill="#999999" width="6.152" height="6.152"/>
<path fill="#999999" d="M178.846,170.095v4.068h-3.87v10.42c0,1.322,0.628,1.986,1.885,1.986h1.985v4.564h-2.977
	c-2.05,0-3.638-0.66-4.764-1.984c-0.992-1.125-1.489-2.547-1.489-4.27v-10.717h-2.282v-4.068h2.282v-6.451h5.359v6.451H178.846z"/>
<path fill="#999999" d="M154.036,169.201c-1.853,0-3.34,0.197-4.467,0.594c-1.189,0.465-2.314,1.258-3.373,2.383l3.474,3.375
	c0.991-1.191,2.381-1.785,4.168-1.785c2.711,0,4.068,1.123,4.068,3.373h0.002v1.09h-5.161c-2.382,0-4.235,0.596-5.558,1.787
	c-1.257,1.191-1.887,2.711-1.887,4.564c0,1.986,0.63,3.607,1.887,4.865c1.19,1.254,3.01,1.883,5.457,1.883
	c2.185,0,3.97-0.693,5.359-2.084v1.887h5.261v-14.291C163.266,171.748,160.189,169.201,154.036,169.201z M157.906,183.095
	c0,1.125-0.166,1.953-0.497,2.482c-0.662,0.926-1.918,1.389-3.77,1.389c-2.052,0-3.077-0.859-3.077-2.58
	c0-1.588,0.991-2.381,2.976-2.381h4.368V183.095z"/>
<path fill="#999999" d="M138.553,161.458v23.125c0,1.322,0.628,1.986,1.886,1.986h2.083v4.564h-3.076
	c-2.052,0-3.638-0.66-4.765-1.984c-0.992-1.125-1.488-2.547-1.488-4.27v-23.42h5.36V161.458z"/>
<path fill="#999999" d="M127.933,175.253c-0.331-1.785-0.993-3.174-1.985-4.166c-1.257-1.258-3.01-1.885-5.26-1.885
	s-4.068,0.758-5.459,2.279V169.4h-5.16v29.674h5.359v-9.826c1.323,1.391,3.076,2.084,5.26,2.084c2.25,0,4.003-0.629,5.26-1.885
	c0.992-0.992,1.654-2.381,1.985-4.168c0.198-1.125,0.299-2.813,0.299-5.063C128.232,178.035,128.131,176.378,127.933,175.253z
	 M122.276,184.384c-0.528,1.389-1.588,2.086-3.176,2.086c-1.589,0-2.646-0.697-3.176-2.086c-0.331-0.859-0.496-2.248-0.496-4.168
	c0-1.918,0.165-3.273,0.496-4.066c0.529-1.393,1.589-2.084,3.176-2.084c1.589,0,2.647,0.691,3.176,2.084
	c0.333,0.793,0.497,2.148,0.497,4.066C122.773,182.136,122.609,183.525,122.276,184.384z"/>
<path fill="#999999" d="M101.833,171.087c1.587,1.588,2.382,3.639,2.382,6.152v13.895h-5.459v-13.1c0-1.389-0.397-2.414-1.191-3.076
	c-0.595-0.598-1.389-0.893-2.381-0.893c-0.993,0-1.786,0.264-2.382,0.793c-0.86,0.729-1.291,1.721-1.291,2.977v13.299h-5.359v-13.1
	c0-1.389-0.397-2.414-1.19-3.076c-0.662-0.598-1.456-0.893-2.383-0.893c-0.992,0-1.819,0.295-2.481,0.893
	c-0.794,0.662-1.19,1.688-1.19,3.076v13.1h-5.36V169.4h5.26v1.984c1.457-1.457,3.243-2.182,5.36-2.182
	c2.514,0,4.433,0.893,5.756,2.678c1.786-1.785,3.97-2.678,6.549-2.678C98.722,169.201,100.509,169.83,101.833,171.087z"/>
<rect x="62.133" y="169.4" fill="#999999" width="5.36" height="21.734"/>
<rect x="62.133" y="161.261" fill="#999999" width="5.36" height="4.465"/>
<path fill="#999999" d="M49.033,169.201c2.25,0,4.036,0.727,5.359,2.184c1.258,1.455,1.885,3.342,1.885,5.656v14.094h-5.458v-13.299
	c0-1.324-0.363-2.316-1.091-2.979c-0.662-0.527-1.488-0.791-2.481-0.791c-0.926,0-1.72,0.264-2.382,0.791
	c-0.729,0.73-1.092,1.721-1.092,2.979v13.299h-5.359v-29.676h5.359v9.926C45.229,169.927,46.982,169.201,49.033,169.201z"/>
<path fill="#999999" d="M27,169.201c2.912,0,5.294,0.959,7.146,2.879l-3.673,3.672c-1.058-1.125-2.217-1.686-3.474-1.686
	c-1.323,0-2.381,0.496-3.175,1.486c-0.795,0.926-1.191,2.482-1.191,4.664c0,2.25,0.396,3.84,1.191,4.766
	c0.794,0.992,1.852,1.488,3.175,1.488c1.257,0,2.416-0.564,3.474-1.688l3.673,3.672c-1.919,1.918-4.301,2.877-7.146,2.877
	c-2.646,0-4.797-0.727-6.45-2.182c-2.183-1.986-3.275-4.963-3.275-8.934c0-3.969,1.093-6.914,3.275-8.832
	C22.203,169.927,24.354,169.201,27,169.201z"/>
<rect x="40.697" y="1.476" fill="#999999" width="148.471" height="23.125"/>
<rect x="40.697" y="34.029" fill="#999999" width="68.182" height="23.125"/>
<rect x="80.891" y="65.391" fill="#999999" width="68.182" height="23.123"/>
<polygon fill="#999999" points="72.257,107.667 157.609,107.667 157.609,65.391 189.167,65.391 189.167,130.794 40.697,130.794 
	40.697,65.391 72.257,65.391 "/>
<rect x="1.693" y="48.022" fill="#999999" width="31.561" height="36.225"/>
<rect x="196.711" y="48.022" fill="#999999" width="31.561" height="36.225"/>
<rect x="120.986" y="34.029" fill="#999999" width="68.182" height="23.125"/>
</svg>
