<?xml version="1.0" encoding="utf-8"?>
<!-- Generator: Adobe Illustrator 16.0.0, SVG Export Plug-In . SVG Version: 6.00 Build 0)  -->
<!DOCTYPE svg PUBLIC "-//W3C//DTD SVG 1.1//EN" "http://www.w3.org/Graphics/SVG/1.1/DTD/svg11.dtd">
<svg version="1.1" id="Layer_1" xmlns="http://www.w3.org/2000/svg" xmlns:xlink="http://www.w3.org/1999/xlink" x="0px" y="0px"
	 width="230.964px" height="201.55px" viewBox="-0.5 -0.5 230.964 201.55" enable-background="new -0.5 -0.5 230.964 201.55"
	 xml:space="preserve">
<path fill="none" stroke="#999999" stroke-miterlimit="10" d="M201.573,179.523v2.482h-13.596c0,1.387,0.43,2.547,1.29,3.473
	c0.86,0.859,2.019,1.289,3.474,1.289c1.918,0,3.572-0.66,4.962-1.984l3.276,3.176c-1.193,1.191-2.35,2.053-3.474,2.582
	c-1.324,0.527-2.912,0.791-4.765,0.791c-6.682,0-10.024-3.703-10.024-11.115c0-3.439,0.861-6.15,2.581-8.137
	c1.72-1.918,4.002-2.877,6.847-2.877c2.978,0,5.326,0.959,7.047,2.877C200.78,173.998,201.573,176.478,201.573,179.523z"/>
<path fill="none" stroke="#999999" stroke-miterlimit="10" d="M195.817,175.949c-0.661-1.521-1.885-2.281-3.673-2.281
	c-1.719,0-2.912,0.76-3.572,2.281c-0.331,0.662-0.529,1.422-0.595,2.283h8.335C196.247,177.371,196.083,176.611,195.817,175.949z"/>
<rect x="206.438" y="184.982" fill="none" stroke="#999999" stroke-miterlimit="10" width="6.152" height="6.152"/>
<path fill="none" stroke="#999999" stroke-miterlimit="10" d="M178.846,170.095v4.068h-3.87v10.42c0,1.322,0.628,1.986,1.885,1.986
	h1.985v4.564h-2.977c-2.05,0-3.638-0.66-4.764-1.984c-0.992-1.125-1.489-2.547-1.489-4.27v-10.717h-2.282v-4.068h2.282v-6.451h5.359
	v6.451H178.846z"/>
<path fill="none" stroke="#999999" stroke-miterlimit="10" d="M157.906,177.14c0-2.25-1.357-3.373-4.068-3.373
	c-1.787,0-3.177,0.594-4.168,1.785l-3.474-3.375c1.059-1.125,2.184-1.918,3.373-2.383c1.127-0.396,2.614-0.594,4.467-0.594
	c6.153,0,9.23,2.547,9.23,7.641v14.291h-5.261v-1.887c-1.39,1.391-3.175,2.084-5.359,2.084c-2.447,0-4.267-0.629-5.457-1.883
	c-1.257-1.258-1.887-2.879-1.887-4.865c0-1.854,0.63-3.373,1.887-4.564c1.322-1.191,3.176-1.787,5.558-1.787h5.161v-1.09H157.906z"
	/>
<path fill="none" stroke="#999999" stroke-miterlimit="10" d="M157.906,182.005h-4.368c-1.984,0-2.976,0.793-2.976,2.381
	c0,1.721,1.025,2.58,3.077,2.58c1.852,0,3.107-0.463,3.77-1.389c0.331-0.529,0.497-1.357,0.497-2.482V182.005z"/>
<path fill="none" stroke="#999999" stroke-miterlimit="10" d="M138.553,161.458v23.125c0,1.322,0.628,1.986,1.886,1.986h2.083v4.564
	h-3.076c-2.052,0-3.638-0.66-4.765-1.984c-0.992-1.125-1.488-2.547-1.488-4.27v-23.42h5.36V161.458z"/>
<path fill="none" stroke="#999999" stroke-miterlimit="10" d="M125.948,171.087c0.992,0.992,1.654,2.381,1.985,4.166
	c0.198,1.125,0.299,2.781,0.299,4.963c0,2.25-0.101,3.938-0.299,5.063c-0.331,1.787-0.993,3.176-1.985,4.168
	c-1.257,1.256-3.01,1.885-5.26,1.885c-2.184,0-3.937-0.693-5.26-2.084v9.826h-5.359V169.4h5.16v2.082
	c1.391-1.521,3.209-2.279,5.459-2.279S124.691,169.83,125.948,171.087z"/>
<path fill="none" stroke="#999999" stroke-miterlimit="10" d="M122.276,176.15c-0.528-1.393-1.587-2.084-3.176-2.084
	c-1.587,0-2.646,0.691-3.176,2.084c-0.331,0.793-0.496,2.148-0.496,4.066c0,1.92,0.165,3.309,0.496,4.168
	c0.529,1.389,1.587,2.086,3.176,2.086c1.588,0,2.647-0.697,3.176-2.086c0.333-0.859,0.497-2.248,0.497-4.168
	C122.773,178.298,122.609,176.943,122.276,176.15z"/>
<path fill="none" stroke="#999999" stroke-miterlimit="10" d="M101.833,171.087c1.587,1.588,2.382,3.639,2.382,6.152v13.895h-5.459
	v-13.1c0-1.389-0.397-2.414-1.191-3.076c-0.595-0.598-1.389-0.893-2.381-0.893c-0.993,0-1.786,0.264-2.382,0.793
	c-0.86,0.729-1.291,1.721-1.291,2.977v13.299h-5.359v-13.1c0-1.389-0.397-2.414-1.19-3.076c-0.662-0.598-1.456-0.893-2.383-0.893
	c-0.992,0-1.819,0.295-2.481,0.893c-0.794,0.662-1.19,1.688-1.19,3.076v13.1h-5.36V169.4h5.26v1.984
	c1.457-1.457,3.243-2.182,5.36-2.182c2.514,0,4.433,0.893,5.756,2.678c1.786-1.785,3.97-2.678,6.549-2.678
	C98.722,169.201,100.509,169.83,101.833,171.087z"/>
<rect x="62.133" y="169.4" fill="none" stroke="#999999" stroke-miterlimit="10" width="5.36" height="21.734"/>
<rect x="62.133" y="161.261" fill="none" stroke="#999999" stroke-miterlimit="10" width="5.36" height="4.465"/>
<path fill="none" stroke="#999999" stroke-miterlimit="10" d="M49.033,169.201c2.25,0,4.036,0.727,5.359,2.184
	c1.258,1.455,1.885,3.342,1.885,5.656v14.094h-5.458v-13.299c0-1.324-0.363-2.316-1.091-2.979c-0.662-0.527-1.488-0.791-2.481-0.791
	c-0.926,0-1.72,0.264-2.382,0.791c-0.729,0.73-1.092,1.721-1.092,2.979v13.299h-5.359v-29.676h5.359v9.926
	C45.229,169.927,46.982,169.201,49.033,169.201z"/>
<path fill="none" stroke="#999999" stroke-miterlimit="10" d="M27,169.201c2.912,0,5.294,0.959,7.146,2.879l-3.673,3.672
	c-1.058-1.125-2.217-1.686-3.474-1.686c-1.323,0-2.381,0.496-3.175,1.486c-0.795,0.926-1.191,2.482-1.191,4.664
	c0,2.25,0.396,3.84,1.191,4.766c0.794,0.992,1.852,1.488,3.175,1.488c1.257,0,2.416-0.564,3.474-1.688l3.673,3.672
	c-1.919,1.918-4.301,2.877-7.146,2.877c-2.646,0-4.797-0.727-6.45-2.182c-2.183-1.986-3.275-4.963-3.275-8.934
	c0-3.969,1.093-6.914,3.275-8.832C22.203,169.927,24.354,169.201,27,169.201z"/>
<rect x="40.697" y="1.476" fill="none" stroke="#999999" stroke-miterlimit="10" width="148.471" height="23.125"/>
<rect x="40.697" y="34.029" fill="none" stroke="#999999" stroke-miterlimit="10" width="68.182" height="23.125"/>
<rect x="80.891" y="65.391" fill="none" stroke="#999999" stroke-miterlimit="10" width="68.182" height="23.123"/>
<polygon fill="none" stroke="#999999" stroke-miterlimit="10" points="72.257,107.667 157.609,107.667 157.609,65.391 
	189.167,65.391 189.167,130.794 40.697,130.794 40.697,65.391 72.257,65.391 "/>
<rect x="1.693" y="48.022" fill="none" stroke="#999999" stroke-miterlimit="10" width="31.561" height="36.225"/>
<rect x="196.711" y="48.022" fill="none" stroke="#999999" stroke-miterlimit="10" width="31.561" height="36.225"/>
<rect x="120.986" y="34.029" fill="none" stroke="#999999" stroke-miterlimit="10" width="68.182" height="23.125"/>
</svg>
